<?xml version="1.0"?>
<svg version="1.1" xmlns="http://www.w3.org/2000/svg" width="400" height="200" style="border: dashed 2px #aaa"><path fill="#ffffff" d="M21.685546875,116.7890625l-4.169921875,0l0-19.98828125l11.45703125,0l0,3.47265625l-7.287109375,0l0,5.154296875l6.78125,0l0,3.458984375l-6.78125,0l0,7.90234375z M39.04568359375,106.20703125l1.39453125,0q1.955078125,0,2.92578125-0.7724609375t0.970703125-2.2490234375q0-1.490234375-0.8134765625-2.201171875t-2.5498046875-0.7109375l-1.927734375,0l0,5.93359375z M48.61599609375,103.03515625q0,3.2265625-2.0166015625,4.935546875t-5.7353515625,1.708984375l-1.818359375,0l0,7.109375l-4.23828125,0l0-19.98828125l6.384765625,0q3.63671875,0,5.5302734375,1.5654296875t1.8935546875,4.6689453125z M72.4566015625,106.767578125q0,4.962890625-2.4609375,7.62890625t-7.0546875,2.666015625t-7.0546875-2.666015625t-2.4609375-7.65625t2.4677734375-7.6220703125t7.0751953125-2.6318359375t7.0478515625,2.65234375t2.4404296875,7.62890625z M57.8687109375,106.767578125q0,3.349609375,1.271484375,5.044921875t3.80078125,1.6953125q5.072265625,0,5.072265625-6.740234375q0-6.75390625-5.044921875-6.75390625q-2.529296875,0-3.814453125,1.7021484375t-1.28515625,5.0517578125z M78.52376953125,116.7890625l0-19.98828125l4.23828125,0l0,16.48828125l8.107421875,0l0,3.5l-12.345703125,0z M102.487421875,105.03125l4.169921875-8.23046875l4.56640625,0l-6.630859375,12.208984375l0,7.779296875l-4.2109375,0l0-7.642578125l-6.630859375-12.345703125l4.59375,0z M132.5729296875,116.7890625l-4.23828125,0l0-16.4609375l-5.427734375,0l0-3.52734375l15.09375,0l0,3.52734375l-5.427734375,0l0,16.4609375z M154.51314453125,116.7890625l-11.51171875,0l0-19.98828125l11.51171875,0l0,3.47265625l-7.2734375,0l0,4.388671875l6.767578125,0l0,3.47265625l-6.767578125,0l0,5.154296875l7.2734375,0l0,3.5z M172.843984375,116.7890625l-1.44921875-4.7578125l-7.287109375,0l-1.44921875,4.7578125l-4.56640625,0l7.0546875-20.0703125l5.181640625,0l7.08203125,20.0703125l-4.56640625,0z M170.383046875,108.4765625q-2.009765625-6.466796875-2.2626953125-7.314453125t-0.3623046875-1.33984375q-0.451171875,1.75-2.583984375,8.654296875l5.208984375,0z M190.34083984375,100.041015625q-2.392578125,0-3.705078125,1.7978515625t-1.3125,5.0107421875q0,6.685546875,5.017578125,6.685546875q2.10546875,0,5.099609375-1.052734375l0,3.5546875q-2.4609375,1.025390625-5.49609375,1.025390625q-4.361328125,0-6.671875-2.6455078125t-2.310546875-7.5947265625q0-3.1171875,1.134765625-5.4619140625t3.2607421875-3.595703125t4.9833984375-1.2509765625q2.912109375,0,5.8515625,1.408203125l-1.3671875,3.4453125q-1.12109375-0.533203125-2.255859375-0.9296875t-2.228515625-0.396484375z M217.9958984375,116.7890625l-4.224609375,0l0-8.626953125l-7.916015625,0l0,8.626953125l-4.23828125,0l0-19.98828125l4.23828125,0l0,7.833984375l7.916015625,0l0-7.833984375l4.224609375,0l0,19.98828125z M236.47712890625,116.7890625l-11.51171875,0l0-19.98828125l11.51171875,0l0,3.47265625l-7.2734375,0l0,4.388671875l6.767578125,0l0,3.47265625l-6.767578125,0l0,5.154296875l7.2734375,0l0,3.5z M246.809921875,105.673828125l1.3671875,0q2.009765625,0,2.966796875-0.669921875t0.95703125-2.10546875q0-1.421875-0.9775390625-2.0234375t-3.0283203125-0.6015625l-1.28515625,0l0,5.400390625z M246.809921875,109.119140625l0,7.669921875l-4.23828125,0l0-19.98828125l5.82421875,0q4.07421875,0,6.029296875,1.4833984375t1.955078125,4.5048828125q0,1.763671875-0.970703125,3.1376953125t-2.748046875,2.1533203125q4.51171875,6.740234375,5.87890625,8.708984375l-4.703125,0l-4.771484375-7.669921875l-2.255859375,0z M279.8895703125,116.7890625l-4.23828125,0l0-16.4609375l-5.427734375,0l0-3.52734375l15.09375,0l0,3.52734375l-5.427734375,0l0,16.4609375z M308.46064453125,106.767578125q0,4.962890625-2.4609375,7.62890625t-7.0546875,2.666015625t-7.0546875-2.666015625t-2.4609375-7.65625t2.4677734375-7.6220703125t7.0751953125-2.6318359375t7.0478515625,2.65234375t2.4404296875,7.62890625z M293.87275390625,106.767578125q0,3.349609375,1.271484375,5.044921875t3.80078125,1.6953125q5.072265625,0,5.072265625-6.740234375q0-6.75390625-5.044921875-6.75390625q-2.529296875,0-3.814453125,1.7021484375t-1.28515625,5.0517578125z M332.670390625,106.767578125q0,4.962890625-2.4609375,7.62890625t-7.0546875,2.666015625t-7.0546875-2.666015625t-2.4609375-7.65625t2.4677734375-7.6220703125t7.0751953125-2.6318359375t7.0478515625,2.65234375t2.4404296875,7.62890625z M318.0825,106.767578125q0,3.349609375,1.271484375,5.044921875t3.80078125,1.6953125q5.072265625,0,5.072265625-6.740234375q0-6.75390625-5.044921875-6.75390625q-2.529296875,0-3.814453125,1.7021484375t-1.28515625,5.0517578125z M338.73755859375,116.7890625l0-19.98828125l4.23828125,0l0,16.48828125l8.107421875,0l0,3.5l-12.345703125,0z"/><path fill="#" d=""/></svg>
